<svg width="95" height="106" viewBox="0 0 95 106" fill="none" xmlns="http://www.w3.org/2000/svg">
<g filter="url(#filter0_d_935_30)">
<path d="M16 26.007C16 23.2417 18.2417 21 21.007 21H63.01C65.7753 21 68.017 23.2417 68.017 26.007V64.9502C68.017 67.7155 65.7753 69.9572 63.01 69.9572H16V26.007Z" fill="white"/>
<path d="M21.0572 79.2865C17.2084 76.5923 16.0858 72.2303 16.0056 70.3861V25.6434C16.0056 25.4029 16.9622 21.073 23.4627 21.0729C39.0505 23.5747 43.4286 31.4167 43.6691 35.025C43.7493 47.694 43.8616 74.4274 43.6691 80.0082C43.4767 85.589 37.8157 85.3805 35.0092 84.5787C31.1604 83.2957 22.9816 80.4412 21.0572 79.2865Z" fill="white"/>
</g>
<g filter="url(#filter1_d_935_30)">
<path d="M16 26.007C16 23.2417 18.2417 21 21.007 21H63.01C65.7753 21 68.017 23.2417 68.017 26.007V64.9502C68.017 67.7155 65.7753 69.9572 63.01 69.9572H16V26.007Z" fill="#7400E0" fill-opacity="0.5" shape-rendering="crispEdges"/>
<path d="M21.0572 79.2865C17.2084 76.5923 16.0858 72.2303 16.0056 70.3861V25.6434C16.0056 25.4029 16.9622 21.073 23.4627 21.0729C39.0505 23.5747 43.4286 31.4167 43.6691 35.025C43.7493 47.694 43.8616 74.4274 43.6691 80.0082C43.4767 85.589 37.8157 85.3805 35.0092 84.5787C31.1604 83.2957 22.9816 80.4412 21.0572 79.2865Z" fill="#7400E0" fill-opacity="0.5" shape-rendering="crispEdges"/>
</g>
<defs>
<filter id="filter0_d_935_30" x="0" y="0" width="94.017" height="106" filterUnits="userSpaceOnUse" color-interpolation-filters="sRGB">
<feFlood flood-opacity="0" result="BackgroundImageFix"/>
<feColorMatrix in="SourceAlpha" type="matrix" values="0 0 0 0 0 0 0 0 0 0 0 0 0 0 0 0 0 0 127 0" result="hardAlpha"/>
<feOffset dx="5"/>
<feGaussianBlur stdDeviation="10.5"/>
<feComposite in2="hardAlpha" operator="out"/>
<feColorMatrix type="matrix" values="0 0 0 0 0 0 0 0 0 0 0 0 0 0 0 0 0 0 0.6 0"/>
<feBlend mode="normal" in2="BackgroundImageFix" result="effect1_dropShadow_935_30"/>
<feBlend mode="normal" in="SourceGraphic" in2="effect1_dropShadow_935_30" result="shape"/>
</filter>
<filter id="filter1_d_935_30" x="0" y="0" width="94.017" height="106" filterUnits="userSpaceOnUse" color-interpolation-filters="sRGB">
<feFlood flood-opacity="0" result="BackgroundImageFix"/>
<feColorMatrix in="SourceAlpha" type="matrix" values="0 0 0 0 0 0 0 0 0 0 0 0 0 0 0 0 0 0 127 0" result="hardAlpha"/>
<feOffset dx="5"/>
<feGaussianBlur stdDeviation="10.5"/>
<feComposite in2="hardAlpha" operator="out"/>
<feColorMatrix type="matrix" values="0 0 0 0 0 0 0 0 0 0 0 0 0 0 0 0 0 0 0.6 0"/>
<feBlend mode="normal" in2="BackgroundImageFix" result="effect1_dropShadow_935_30"/>
<feBlend mode="normal" in="SourceGraphic" in2="effect1_dropShadow_935_30" result="shape"/>
</filter>
</defs>
</svg>
