<svg width="108" height="139" viewBox="0 0 108 139" fill="none" xmlns="http://www.w3.org/2000/svg">
<path d="M0 18C0 8.05887 8.05888 0 18 0H90C99.9411 0 108 8.05888 108 18V89C108 98.9411 99.9411 107 90 107H0V18Z" fill="#7400E0" fill-opacity="0.5"/>
<path d="M10.5117 126.355C2.51169 120.755 0.178355 111.688 0.0116882 107.855V14.8551C0.0116882 14.3551 2 5.35516 15.5117 5.3551C47.9117 10.5551 57.0117 26.8551 57.5117 34.3551C57.6784 60.6884 57.9117 116.255 57.5117 127.855C57.1117 139.455 45.345 139.022 39.5117 137.355C31.5117 134.688 14.5117 128.755 10.5117 126.355Z" fill="#7400E0" fill-opacity="0.5"/>
</svg>
